<?xml version='1.0' encoding='iso-8859-1'?>
<!DOCTYPE svg PUBLIC '-//W3C//DTD SVG 1.1//EN' 'http://www.w3.org/Graphics/SVG/1.1/DTD/svg11.dtd'>
<!-- Uploaded to: SVG Repo, www.svgrepo.com, Generator: SVG Repo Mixer Tools -->
<svg fill="#000000" height="800px" width="800px" version="1.1" xmlns="http://www.w3.org/2000/svg" viewBox="0 0 449.259 449.259" xmlns:xlink="http://www.w3.org/1999/xlink" enable-background="new 0 0 449.259 449.259">
  <g>
    <path d="m449.206,413.6l-29.689-286.717c-1.605-15.501-14.568-27.191-30.152-27.191h-79.673v-37.97c0-20.453-16.64-37.093-37.093-37.093h-95.938c-20.453,0-37.093,16.64-37.093,37.093v37.969h-79.674c-15.584,0-28.547,11.689-30.152,27.191l-29.689,286.718c-0.292,2.816 0.625,5.624 2.521,7.727 1.896,2.103 4.595,3.303 7.426,3.303h429.259c2.832,0 5.53-1.2 7.426-3.303 1.897-2.103 2.813-4.911 2.521-7.727zm-289.638-351.878c2.84217e-14-9.425 7.668-17.093 17.093-17.093h95.938c9.425,0 17.093,7.668 17.093,17.093v37.969h-130.124v-37.969zm-109.932,67.221c0.546-5.274 4.957-9.251 10.259-9.251h329.47c5.302,0 9.712,3.977 10.259,9.251l23.556,227.485c-22.652,6.193-39.62,25.012-43.457,48.202h-310.186c-3.837-23.19-20.805-42.009-43.457-48.202l23.556-227.485zm-25.658,247.788c12.467,4.561 21.889,15.013 25.147,27.898h-28.036l2.889-27.898zm376.156,27.899c3.258-12.885 12.68-23.337 25.147-27.898l2.889,27.898h-28.036z"/>
    <path d="m113.134,390.457c0.819,0 1.645-0.101 2.459-0.307l47.376-12.021c1.745-0.443 3.338-1.349 4.612-2.622l168.293-168.293c13.646-13.647 13.646-35.851 0-49.498-6.611-6.61-15.4-10.251-24.749-10.251s-18.138,3.641-24.749,10.251l-168.293,168.294c-1.273,1.273-2.179,2.867-2.622,4.612l-12.021,47.376c-0.867,3.417 0.129,7.038 2.622,9.531 1.899,1.898 4.453,2.928 7.072,2.928zm17.387-37.867l10.48,10.479-14.042,3.563 3.562-14.042zm29.989,1.704l-21.213-21.213 146.373-146.373 21.213,21.213-146.373,146.373zm150.615-186.829c4.007,0 7.773,1.56 10.606,4.394 5.849,5.848 5.849,15.365 0,21.213l-.707,.707-21.213-21.213 .707-.707c2.835-2.834 6.601-4.394 10.607-4.394z"/>
  </g>
</svg>